<?xml version="1.0" encoding="UTF-8" standalone="no"?>
<!-- Created with Inkscape (http://www.inkscape.org/) -->

<svg
   width="55.61586mm"
   height="7.7486825mm"
   viewBox="0 0 55.61586 7.7486825"
   version="1.1"
   id="svg1"
   xml:space="preserve"
   xmlns="http://www.w3.org/2000/svg"
   xmlns:svg="http://www.w3.org/2000/svg"><defs
     id="defs1" /><g
     id="layer1"
     transform="translate(-46.718241,-155.00326)"
     style="fill:#83ed06;fill-opacity:1"><path
       d="m 58.036495,161.92982 v -4.1656 h -1.126067 v 4.1656 z m -1.261534,-5.52873 c 0,0.37253 0.313267,0.6858 0.694267,0.6858 0.389467,0 0.694267,-0.31327 0.694267,-0.6858 0,-0.38947 -0.3048,-0.70273 -0.694267,-0.70273 -0.381,0 -0.694267,0.31326 -0.694267,0.70273 z m 4.334932,2.27753 c 0.5588,0 0.821267,0.3556 0.922867,0.70274 l 1.007533,-0.33867 c -0.1778,-0.70273 -0.821267,-1.40547 -1.9558,-1.40547 -1.210734,0 -2.159001,0.92287 -2.159001,2.2098 0,1.27847 0.9652,2.2098 2.192867,2.2098 1.109134,0 1.761068,-0.7112 1.947334,-1.40546 l -0.9906,-0.3302 c -0.09313,0.32173 -0.381,0.70273 -0.956734,0.70273 -0.575733,0 -1.0668,-0.42333 -1.0668,-1.17687 0,-0.75353 0.4826,-1.1684 1.058334,-1.1684 z m 3.911595,0.80434 c 0.0254,-0.4572 0.3048,-0.8128 0.778933,-0.8128 0.541867,0 0.770467,0.36406 0.770467,0.82973 v 2.42993 h 1.126067 v -2.62466 c 0,-0.9144 -0.491067,-1.651 -1.5494,-1.651 -0.397934,0 -0.855134,0.13546 -1.126067,0.4572 v -2.3114 h -1.126067 v 6.12986 h 1.126067 z m 4.639732,-0.11007 c 0.0254,-0.381 0.347133,-0.82127 0.931334,-0.82127 0.643467,0 0.9144,0.4064 0.931333,0.82127 z m 1.972734,1.08373 c -0.135467,0.37254 -0.423333,0.635 -0.948267,0.635 -0.5588,0 -1.024467,-0.39793 -1.049867,-0.94826 h 2.980268 c 0,-0.0169 0.01693,-0.18627 0.01693,-0.34714 0,-1.33773 -0.770467,-2.159 -2.057401,-2.159 -1.0668,0 -2.048934,0.8636 -2.048934,2.19287 0,1.40547 1.007534,2.22673 2.150534,2.22673 1.024467,0 1.684868,-0.60113 1.896534,-1.3208 z m 4.182536,-2.6924 -0.905934,2.67547 -0.770467,-2.67547 h -1.185334 l 1.329268,4.1656 h 1.143 l 0.956734,-2.8448 0.973667,2.8448 h 1.126067 l 1.303867,-4.1656 h -1.1176 l -0.770467,2.68394 -0.897467,-2.68394 z m 7.213597,-0.0169 c -0.08467,-0.008 -0.169333,-0.0169 -0.262467,-0.0169 -0.3556,0 -0.931333,0.1016 -1.185334,0.65193 v -0.61807 h -1.0922 v 4.1656 h 1.126067 v -1.905 c 0,-0.89746 0.499534,-1.17686 1.075267,-1.17686 0.1016,0 0.211667,0.008 0.338667,0.0339 z m 0.567277,3.048 c 0,0.65193 0.541867,1.25307 1.430868,1.25307 0.618067,0 1.016,-0.28787 1.227667,-0.61807 0,0.16087 0.01693,0.38947 0.04233,0.49953 h 1.032934 c -0.0254,-0.14393 -0.0508,-0.44026 -0.0508,-0.6604 v -2.04893 c 0,-0.8382 -0.491067,-1.58327 -1.811867,-1.58327 -1.117601,0 -1.718734,0.71967 -1.786468,1.3716 l 0.999067,0.21167 c 0.03387,-0.36407 0.3048,-0.67733 0.795867,-0.67733 0.474134,0 0.702734,0.24553 0.702734,0.54186 0,0.14394 -0.0762,0.26247 -0.313267,0.29634 l -1.024467,0.1524 c -0.694267,0.1016 -1.244601,0.51646 -1.244601,1.26153 z m 1.667934,0.41487 c -0.364066,0 -0.541866,-0.23707 -0.541866,-0.4826 0,-0.32174 0.2286,-0.4826 0.516466,-0.52494 l 0.939801,-0.14393 v 0.18627 c 0,0.7366 -0.440267,0.9652 -0.914401,0.9652 z m 7.103528,-5.4102 h -1.109134 v 2.37913 c -0.118534,-0.22013 -0.4572,-0.51647 -1.176867,-0.51647 -1.176868,0 -1.998135,0.95674 -1.998135,2.17594 0,1.26153 0.846667,2.19286 2.032001,2.19286 0.558801,0 0.982134,-0.254 1.168401,-0.5842 0,0.19474 0.0254,0.39794 0.04233,0.4826 h 1.075267 c -0.01693,-0.16933 -0.03387,-0.47413 -0.03387,-0.75353 z m -3.149602,4.0386 c 0,-0.74507 0.4572,-1.1684 1.032934,-1.1684 0.575734,0 1.024467,0.41486 1.024467,1.15993 0,0.75353 -0.448733,1.1938 -1.024467,1.1938 -0.592667,0 -1.032934,-0.44027 -1.032934,-1.18533 z m 6.239942,1.1938 c -0.550333,0 -1.058333,-0.4064 -1.058333,-1.18534 0,-0.7874 0.508,-1.18533 1.058333,-1.18533 0.550334,0 1.058334,0.39793 1.058334,1.18533 0,0.7874 -0.508,1.18534 -1.058334,1.18534 z m 0,-3.39514 c -1.2446,0 -2.184401,0.92287 -2.184401,2.2098 0,1.27847 0.939801,2.2098 2.184401,2.2098 1.244601,0 2.184401,-0.93133 2.184401,-2.2098 0,-1.28693 -0.9398,-2.2098 -2.184401,-2.2098 z m 4.199468,1.89654 c 0,-0.4826 0.287866,-0.8636 0.778936,-0.8636 0.54186,0 0.77046,0.36406 0.77046,0.82973 v 2.42993 h 1.12607 v -2.62466 c 0,-0.9144 -0.47413,-1.651 -1.50707,-1.651 -0.44873,0 -0.948263,0.19473 -1.202263,0.62653 v -0.51647 h -1.0922 v 4.1656 h 1.126067 z"
       id="text1"
       style="font-weight:bold;font-size:8.46667px;line-height:1;font-family:'Circular Std Bold';-inkscape-font-specification:'Circular Std Bold,  Bold';text-align:center;text-anchor:middle;fill:#83ed06;fill-opacity:1;stroke-width:0"
       aria-label="ichewradon" /><g
       style="fill:#83ed06;fill-opacity:1"
       id="g1"
       transform="matrix(0.32271387,0,0,0.32271387,46.716305,155.00358)"><path
         d="m 12.301,0 h 0.093 c 2.242,0 4.34,0.613 6.137,1.68 L 18.476,1.649 c 1.871,1.094 3.386,2.609 4.449,4.422 l 0.031,0.058 c 1.04,1.769 1.654,3.896 1.654,6.166 0,5.406 -3.483,10 -8.327,11.658 l -0.087,0.026 c -0.063,0.02 -0.135,0.031 -0.209,0.031 -0.162,0 -0.312,-0.054 -0.433,-0.144 l 0.002,0.001 c -0.128,-0.115 -0.208,-0.281 -0.208,-0.466 v -0.014 0.001 c 0,-0.032 0.0027,-0.440667 0.008,-1.226 0.0053,-0.785333 0.008,-1.503333 0.008,-2.154 0.007,-0.075 0.011,-0.161 0.011,-0.249 0,-0.792 -0.323,-1.508 -0.844,-2.025 0.618,-0.061 1.176,-0.163 1.718,-0.305 l -0.076,0.017 c 0.573,-0.16 1.073,-0.373 1.537,-0.642 l -0.031,0.017 c 0.508,-0.28 0.938,-0.636 1.292,-1.058 l 0.006,-0.007 c 0.372,-0.476 0.663,-1.036 0.84,-1.645 l 0.009,-0.035 c 0.209,-0.683 0.329,-1.468 0.329,-2.281 0,-0.045 0,-0.091 -0.001,-0.136 v 0.007 c 0,-0.022 0.001,-0.047 0.001,-0.072 0,-1.248 -0.482,-2.383 -1.269,-3.23 l 0.003,0.003 c 0.168,-0.44 0.265,-0.948 0.265,-1.479 0,-0.649 -0.145,-1.263 -0.404,-1.814 L 18.761,5.1 C 18.646,5.078 18.515,5.065 18.38,5.065 c -0.334,0 -0.649,0.078 -0.929,0.216 l 0.012,-0.005 c -0.568,0.21 -1.054,0.448 -1.512,0.726 L 15.989,5.98 15.38,6.364 C 14.458,6.1 13.399,5.948 12.305,5.948 11.211,5.948 10.152,6.1 9.148,6.384 L 9.229,6.364 C 9.0583333,6.2466667 8.8313333,6.1023333 8.548,5.931 8.175,5.717 7.734,5.51 7.276,5.336 L 7.21,5.314 C 6.917,5.16 6.57,5.07 6.201,5.07 6.077,5.07 5.955,5.08 5.837,5.1 L 5.85,5.098 C 5.602,5.622 5.457,6.237 5.457,6.886 c 0,0.531 0.097,1.04 0.275,1.509 L 5.722,8.366 c -0.785,0.844 -1.266,1.979 -1.266,3.227 0,0.025 0,0.051 10e-4,0.076 v -0.004 c -10e-4,0.039 -10e-4,0.084 -10e-4,0.13 0,0.809 0.12,1.591 0.344,2.327 L 4.785,14.065 c 0.189,0.643 0.476,1.202 0.85,1.693 L 5.626,15.745 c 0.354,0.435 0.782,0.793 1.267,1.062 l 0.022,0.011 c 0.432,0.252 0.933,0.465 1.46,0.614 l 0.046,0.011 c 0.466,0.125 1.024,0.227 1.595,0.284 l 0.046,0.004 c -0.431,0.428 -0.718,1 -0.784,1.638 L 9.277,19.381 C 9.07,19.482 8.829,19.564 8.578,19.617 l -0.021,0.004 c -0.256,0.051 -0.549,0.08 -0.85,0.08 H 7.641 7.644 C 7.25,19.693 6.888,19.565 6.589,19.353 l 0.006,0.004 C 6.224,19.098 5.924,18.762 5.714,18.371 L 5.707,18.356 C 5.509,18.02 5.248,17.742 4.939,17.529 L 4.93,17.523 C 4.705,17.354 4.44,17.222 4.154,17.143 L 4.138,17.139 3.818,17.091 c -0.023,-0.002 -0.05,-0.003 -0.077,-0.003 -0.14,0 -0.273,0.028 -0.394,0.077 l 0.007,-0.003 c -0.085333,0.048 -0.112,0.109333 -0.08,0.184 0.039,0.086 0.087,0.16 0.145,0.225 L 3.418,17.57 c 0.061,0.072 0.13,0.135 0.205,0.19 l 0.003,0.002 0.112,0.08 c 0.283,0.148 0.516,0.354 0.693,0.603 l 0.004,0.006 c 0.191,0.237 0.359,0.505 0.494,0.792 l 0.01,0.024 0.16,0.368 c 0.135,0.402 0.38,0.738 0.7,0.981 l 0.005,0.004 c 0.3,0.234 0.662,0.402 1.057,0.478 L 6.877,21.1 c 0.33,0.064 0.714,0.104 1.106,0.112 H 7.99 c 0.045,0.002 0.097,0.002 0.15,0.002 0.261,0 0.517,-0.021 0.767,-0.062 L 8.88,21.156 9.248,21.092 c 0,0.406 0.00267,0.878667 0.008,1.418 0.00533,0.539333 0.008,0.830333 0.008,0.873 v 0.014 c 0,0.185 -0.08,0.351 -0.208,0.466 H 9.055 c -0.119,0.089 -0.268,0.143 -0.431,0.143 -0.075,0 -0.147,-0.011 -0.214,-0.032 l 0.005,0.001 C 3.486,22.286 0.006,17.692 0.006,12.285 0.006,10.017 0.618,7.892 1.687,6.066 L 1.655,6.124 C 2.749,4.253 4.264,2.738 6.077,1.675 L 6.135,1.644 C 7.874,0.61 9.97,-0.001 12.208,-0.001 h 0.098 -0.005 z"
         id="path1"
         style="fill:#83ed06;fill-opacity:1" /></g></g></svg>
